<?xml version="1.0" encoding="utf-8"?>
<!-- Generator: Adobe Illustrator 16.0.2, SVG Export Plug-In . SVG Version: 6.00 Build 0)  -->
<!DOCTYPE svg PUBLIC "-//W3C//DTD SVG 1.1//EN" "http://www.w3.org/Graphics/SVG/1.1/DTD/svg11.dtd">
<svg version="1.1" id="Logo" xmlns="http://www.w3.org/2000/svg" xmlns:xlink="http://www.w3.org/1999/xlink" x="0px" y="0px"
	 width="600px" height="600px" viewBox="0 0 600 600" enable-background="new 0 0 600 600" xml:space="preserve">
<circle id="Border" fill="#FFFFFF" stroke="#000000" stroke-width="36" stroke-miterlimit="10" cx="299.589" cy="296.5" r="268.487"/>
<g id="Hands">
	<path fill="none" stroke="#000000" stroke-width="2" stroke-miterlimit="10" d="M558,322.667c-80.741,0-104.333,13.333-136,18.333"
		/>
	<path fill="none" stroke="#000000" stroke-width="2" stroke-miterlimit="10" d="M311,200c36-12,63,0,63,0s63,23,159,0"/>
	<path stroke="#000000" stroke-width="2" stroke-miterlimit="10" d="M311,247c-38,13.667-45,47-51.667,47C251,296.5,229,300,235,283
		c16.5-28.231,10-41.5,28.421-56.463C290.421,212.759,293,216,311,200c-64.117,0-85.658,14.966-116,46
		c-26.333,26.667-113.667,33.333-153,37c0,77.084,13.12,139.46,29.333,139.46C156.667,409.333,201,378.926,208,380.667
		c5.333,1.333-5,25-5,25c-3.333,10.499,23.667,23.229,40,15.666c-6.667,10.782,28.333,26.334,46.333,14
		c1.5,17.5,44.667,15.167,55.333-6.437c0-19.217-20.449-33.676-31.283-37.176c-7.996-2.583,12.874-15.792,12.116-11.554
		c-0.834,4.667,3.129,16.293,33.629,42.293c4.705,2.707,17.728-9.618,16.538-12.793c-13.334-11.667-33.667-43-41.28-41.991
		c-2.892,0.383,13.308-21.412,14.28-13.676c2.228,17.718,4.638,23.385,35.138,49.385c9.136,0,18.945-9.5,18.945-17.635
		c-16.667-14.333-35.267-44.063-46.267-44.396c-6.125-0.186,12.955-26.587,13.582-15.935c1,17,13.435,30.581,46.435,53.581
		c5.968,4.159,20.333-19.896,10.94-33.23C427.44,345.77,386.25,295.25,311,247z M229.667,418.667
		c-14.268,0-19.667-4.313-19.667-13.334S227.899,382,242.167,382s22.5,2.313,22.5,11.333S243.934,418.667,229.667,418.667z
		 M339.078,425.191c0,6.338-19.22,19.476-28.078,19.476s-16.039-5.138-16.039-11.476c0-6.339,19.22-19.477,28.078-19.477
		S339.078,418.853,339.078,425.191z M308.333,410.333c0,5.892-30.75,25-38.667,25c-7.917,0-21.333-7.774-21.333-13.666
		S287.044,397,294.961,397C302.877,397,308.333,404.441,308.333,410.333z"/>
</g>
<g>
	<path stroke="#000000" stroke-width="4" stroke-miterlimit="10" d="M225.24,519.098c-5.247-2.022-20.243-13.929-19.264-16.469
		c0.501-1.302,1.31-2.229,2.425-2.784c1.115-0.555,2.365-0.565,3.749-0.032c1.859,0.717,12.364,9.718,16.516,11.317
		c3.552,1.369,7.29,1.92,11.212,1.652c4.062-0.261,6.459-1.341,7.192-3.242c1.003-2.602,0.589-4.73-1.24-6.384
		c-1.298-1.188-4.23-2.722-8.796-4.6c-3.542-1.46-14.484-5.365-16.828-7.716c-3.161-3.187-4.093-6.368-2.797-9.547
		c1.614-4.004,5.185-11.867,10.712-13.592c5.527-1.725,15.878-0.035,23.944,5.361c1.803,1.206,5.344,3.208,7.96,5.284
		c3.251,2.582,3.586,5.626,3.005,7.134c-0.414,1.074-1.152,1.881-2.214,2.421c-1.185,0.61-2.427,0.665-3.729,0.164
		c-0.971-0.374-2.342-1.14-4.114-2.297s-7.264-5.715-8.145-6.31c-3.83-2.585-9.45-4.341-12.331-4.004
		c-2.972,0.325-7.999,5.419-4.945,10.122c2.752,4.238,16.146,6.699,18.714,7.854c4.45,2.118,7.578,4.806,9.382,8.063
		c1.978,3.608,2.123,7.603,0.436,11.981c-2.054,5.329-6.646,8.197-13.777,8.604C236.877,522.384,231.188,521.39,225.24,519.098z"/>
	<path stroke="#000000" stroke-width="4" stroke-miterlimit="10" d="M337.682,524.044c-0.01,1.107-0.213,2.854-0.609,5.241
		c-0.467,2.852-2.094,4.266-4.883,4.242c-1.549-0.013-3.291-0.902-5.225-2.666c-8.457-7.752-17.985-18.602-28.581-32.548
		c-0.181,5.754-0.277,9.283-0.288,10.59c-0.015,1.749,0.002,4.383,0.05,7.902c0.048,3.521,0.065,6.155,0.051,7.903
		c-0.055,6.53-1.677,9.782-4.864,9.755c-1.616-0.014-2.906-0.522-3.872-1.527c-0.855-0.892-1.279-1.969-1.268-3.23
		c0.007-0.885,0.09-2.225,0.249-4.016c0.159-1.793,0.242-3.131,0.25-4.016c0.011-1.306,0.072-3.265,0.182-5.876
		s0.171-4.569,0.182-5.875c0.012-1.395-0.004-3.498-0.047-6.31c-0.042-2.812-0.058-4.915-0.047-6.31
		c0.011-1.328-0.105-3.31-0.349-5.946s-0.359-4.619-0.349-5.946c0.011-1.328,0.591-2.508,1.74-3.538
		c1.148-1.031,2.453-1.541,3.914-1.528c1.638,0.014,3.441,1.445,5.409,4.295c9.929,14.429,19.747,26.21,29.455,35.345
		c0.027-0.709,0.054-2.391,0.075-5.047c0.092-10.912,0.043-18.273-0.146-22.082c-0.04-0.642-0.173-1.839-0.402-3.59
		c-0.208-1.551-0.309-2.77-0.301-3.655c0.025-3.054,1.654-4.567,4.886-4.54c3.607,0.029,5.365,5.612,5.272,16.745
		c-0.003,0.244-0.04,1.992-0.111,5.245C337.829,514.305,337.704,521.3,337.682,524.044z"/>
	<path stroke="#000000" stroke-width="4" stroke-miterlimit="10" d="M445.252,433.881c-0.406,0.131-1.224,0.753-2.446,1.875
		c-2.407,2.209-3.487,6.655-3.241,13.335c0.337,9.346,1.58,9.325,5.723,13.944c1.89,2.106,5.208,2.273,7.954,2.5
		c2.748,0.227,7.203,0.696,9.152-1.093c1.891-1.735,6.694-11.934,7.722-14.734c0.365-0.995,5.726-14.092,7.291-13.977
		c1.455,0.107,2.644,0.675,3.563,1.699c1.023,1.14,0.598,9.189,0.365,10.951c-1.228,9.307-8.554,17.668-13.999,22.665
		c-4.3,3.946-9.353,5.706-15.156,5.242c-5.568-0.445-10.206-2.753-13.917-6.889c-5.809-6.473-8.944-7.649-9.393-19.532
		c-0.38-10.085,1.923-17.405,6.889-21.967c0.84-0.771,1.626-1.439,2.356-2.004s1.648-0.774,2.024-1.384
		c0.844-1.366,16.67-4.042,18.758-2.022c3.352,3.241,1.02,4.42,0.146,6.041C458.226,430.046,445.79,433.707,445.252,433.881z"/>
</g>
<path stroke="#000000" stroke-width="4" stroke-miterlimit="10" d="M387.828,469.098c-0.426-0.038-1.419,0.227-2.979,0.795
	c-3.069,1.118-5.771,4.812-8.102,11.076c-3.269,8.763-1.818,11.547,0.252,14.532c1.207,1.74,3.633,4.636,6.083,5.897
	c2.452,1.262,6.387,3.401,8.873,2.496c2.411-0.879,10.739-8.474,12.776-10.653c0.714-0.784,10.686-10.822,12.089-10.118
	c1.302,0.659,2.184,1.637,2.64,2.935c0.509,1.445-2.969,8.717-3.857,10.256c-4.702,8.124-14.669,13.044-21.613,15.574
	c-5.483,1.998-10.818,1.677-16.008-0.963c-4.968-2.555-8.373-6.452-10.217-11.694c-2.887-8.204-5.328-10.49-1.194-21.64
	c3.516-9.46,8.441-15.346,14.777-17.653c1.071-0.392,2.053-0.708,2.944-0.948c0.89-0.243,1.689-0.409,2.399-0.503
	c0.702-1.443,16.947,2.651,18.103,5.316c1.854,4.278-0.752,4.474-2.18,5.637C401.281,470.524,388.393,469.14,387.828,469.098z"/>
</svg>
